<svg id="Layer_1" xmlns="http://www.w3.org/2000/svg" viewBox="0 0 104 80"><style>.st2{opacity:.1}.st3{fill:#fff;stroke:#ccc;stroke-width:.25;stroke-miterlimit:10}.st5{fill:#4e75a2}</style><circle cx="48.9" cy="40" r="39.7" fill="#ecf2f8"/><path fill="none" d="M-359-463.1h1440v800H-359z"/><path class="st2" d="M4.3 18.7l47.6-8.3c.5-.1 1.1.3 1.1.8l8.7 50.3c.1.5-.3 1.1-.8 1.1l-47.6 8.3c-.5.1-1.1-.3-1.1-.8L3.6 19.9c-.2-.6.1-1.1.7-1.2z"/><path class="st3" d="M5.6 17.3l47.7-7.6c.5-.1 1.1.3 1.1.8l8 50.4c.1.5-.3 1.1-.8 1.1L14 69.6c-.5.1-1.1-.3-1.1-.8l-8-50.3c-.2-.6.1-1.1.7-1.2z"/><path d="M8.8 19.5L51 12.7c.5-.1 1.1.3 1.1.8l5.5 34.8c.1.5-.3 1.1-.8 1.1l-42.2 6.7c-.5.1-1.1-.3-1.1-.8L7.9 20.6c-.1-.5.3-1.1.9-1.1z" fill="#6290c3"/><path class="st5" d="M15.1 38.6l7.8-1.2c.5-.1 1.1.3 1.1.8l1.8 11.3c.1.5-.3 1.1-.8 1.1l-7.8 1.2c-.5.1-1.1-.3-1.1-.8l-1.8-11.3c-.1-.5.3-1 .8-1.1zM27.9 31l7.8-1.2c.5-.1 1.1.3 1.1.8l2.6 16.7c.1.5-.3 1.1-.8 1.1l-7.8 1.2c-.5.1-1.1-.3-1.1-.8l-2.6-16.7c-.1-.5.3-1 .8-1.1zM40.3 20.6l7.8-1.2c.5-.1 1.1.3 1.1.8L53.1 45c.1.5-.3 1.1-.8 1.1l-7.8 1.2c-.5.1-1.1-.3-1.1-.8l-3.9-24.9c-.1-.4.3-.9.8-1z"/><g><path class="st2" d="M49.8 9.6l47 11.1c.5.1.9.7.7 1.2L85.7 71.6c-.1.5-.7.9-1.2.7l-47-11.1c-.5-.1-.9-.7-.7-1.2l11.7-49.6c.2-.6.7-.9 1.3-.8z"/><path class="st3" d="M51.5 8.9l46.9 11.8c.5.1.9.7.7 1.2L86.6 71.3c-.1.5-.7.9-1.2.7L38.6 60.2c-.5-.1-.9-.7-.7-1.2L50.3 9.7c.2-.6.6-1 1.2-.8z"/><path d="M53.6 12.1L95 22.5c.5.1.9.7.7 1.2l-8.6 34.2c-.1.5-.7.9-1.2.7L44.5 48.1c-.5-.1-.9-.7-.7-1.1l8.5-34.2c.2-.5.8-.9 1.3-.7z" fill="#9cd2a0"/><path fill="none" stroke="#68bf70" stroke-width="2" stroke-linecap="round" stroke-linejoin="round" stroke-miterlimit="10" d="M48.9 43.5L64.4 33l9.4 10.5 16.5-15.9"/></g></svg>